<svg width="680" height="466" viewBox="0 0 680 466" fill="none" xmlns="http://www.w3.org/2000/svg">
<path d="M472 1.5C491.177 2.70803 541.282 12.0803 553.748 45.9053C566.213 79.7302 552.549 123.219 544.159 140.736C540.164 151.205 531.334 177.822 527.978 200.534C524.622 223.245 494.817 250.466 477.637 262.143C495.217 270.398 527.978 286.908 566.333 294.156C589.334 298.503 635.651 352.343 643.042 381.738L679 464.489H125.852L179.189 318.921L391.339 291.136L472 1.5Z" fill="#9C9C9C" stroke="black"/>
<path d="M0 464.421H139.912C149.463 447.698 157.939 407.749 119.463 374.701C80.9872 341.653 33.3635 358.376 23.4083 365.941C15.4441 371.993 4.48434 378.196 0 380.541V464.421Z" fill="#BE8D66" stroke="black"/>
<path d="M511.619 174.422C512.022 173.626 513.045 172.219 513.906 172.962C515.789 165.22 519.879 149.763 521.17 149.869C522.462 149.975 529.332 132.836 532.605 124.253C534.489 119.785 538.229 107.583 538.121 94.5233L527.224 90.8071C532.516 90.055 543.099 85.5778 543.099 73.6859C543.099 61.7939 540.408 53.3351 539.063 50.5921C537.852 42.9827 531.206 26.1446 514.309 19.6678C505.071 10.8196 478.417 -4.77975 445.699 3.60832C412.981 11.9964 409.376 13.5625 403.322 19.9332C401.842 21.4816 395.842 26.5428 383.68 34.4C371.519 42.2571 365.788 54.7508 364.442 60.0154C360.586 72.5798 352.792 98.8235 352.469 103.283L352.335 104.345C353.904 106.247 356.209 113.688 352.873 128.235C359.151 116.157 373.079 91.5238 376.954 89.0817C381.797 86.0291 397.537 77.4021 398.613 75.544C402.111 72.6241 407.142 65.0854 406.819 60.4136C406.595 59.5288 406.524 57.4937 408.03 56.4319C409.914 55.1047 413.546 52.8484 421.752 52.7157C430.793 52.6095 439.69 53.2023 443.008 53.512C449.914 53.7775 464.134 53.9088 466.147 53.2466C470.587 51.7866 479.197 55.901 480.408 56.5647C493.681 61.8293 520.686 80.9325 522.516 115.228C521.17 129.164 516.569 159.557 511.619 174.422Z" fill="black" stroke="black"/>
<path d="M648.436 464.554C635.611 427.126 600.609 348.631 567.718 327.053C541.619 309.932 527.493 308.738 506.91 302.5C470.379 289.593 458.077 275.682 447.673 269.577C446.736 269.028 445.814 268.541 444.892 268.125L330.003 235.873C325.356 238.209 318.647 240.955 311.034 243.581C295.721 248.862 276.75 253.658 263.545 253.658C241.882 253.658 200.709 262.421 161.809 272.01C139.59 277.486 118.113 283.232 101.436 287.767C96.1069 290.359 84.6728 298.437 68.6148 314.089C62.5559 319.994 55.8387 326.978 48.5428 335.152C40.5159 344.146 31.7885 354.58 22.4665 366.605C111.364 324.133 170.988 415.447 138.97 464.554C154.575 448.521 153.208 455.794 168.028 434.293C174.889 424.339 179.688 409.86 179.867 415.181C180.104 422.218 178.859 428.61 176.868 434.293C170.936 451.227 158.376 461.871 158.611 464.554H540.005H648.436Z" fill="#B5C2D7"/>
<path d="M540.005 464.554H648.436C635.611 427.126 600.609 348.631 567.718 327.053C541.619 309.932 527.493 308.738 506.91 302.5C470.379 289.593 458.077 275.682 447.673 269.577M540.005 464.554H158.611C158.376 461.871 170.936 451.227 176.868 434.293M540.005 464.554C539.894 462.351 539.827 459.654 539.8 456.637M541.888 408.147C540.539 417.64 539.66 441.295 539.8 456.637M179.867 415.181C179.688 409.86 174.889 424.339 168.028 434.293C153.208 455.794 154.575 448.521 138.97 464.554C170.988 415.447 111.364 324.133 22.4665 366.605C31.7885 354.58 40.5159 344.146 48.5428 335.152C55.8387 326.978 62.5559 319.994 68.6148 314.089C84.6728 298.437 96.1069 290.359 101.436 287.767C118.113 283.232 139.59 277.486 161.809 272.01C200.709 262.421 241.882 253.658 263.545 253.658C276.75 253.658 295.721 248.862 311.034 243.581M179.867 415.181C180.104 422.218 178.859 428.61 176.868 434.293M179.867 415.181C182.837 407.658 188.298 387.295 186.38 366.034M311.034 243.581C318.647 240.955 325.356 238.209 330.003 235.873L444.892 268.125C445.814 268.541 446.736 269.028 447.673 269.577M311.034 243.581C307.038 255.003 304.056 280.028 311.034 295.968C320.023 316.505 328.413 326.169 336.803 332.813C344.828 339.168 375.757 355.766 399.729 351.538C418.906 348.155 433.289 335.229 438.084 329.189C441.44 324.961 445.755 310.948 447.673 288.72C448.072 284.012 448.631 273.592 447.673 269.577M539.8 456.637C541.652 456.637 546.436 455.308 550.751 449.992C552.686 448.381 555.584 445.685 558.542 442.418M577.12 406.503C575.722 409.523 572.086 417.859 568.73 427.04C566.787 432.355 562.608 437.926 558.542 442.418M558.542 442.418C565.534 436.889 581.315 424.624 588.507 419.792M176.868 434.293C181.437 425.835 191.654 407.832 195.969 403.483C201.363 398.047 215.146 372.074 207.356 350.33" stroke="black"/>
<path d="M328.12 236.271C333.366 230.166 338.99 210.576 340.496 202.825C340.855 201.586 341.465 198.445 341.034 195.791C340.604 193.136 340.496 179.731 340.496 173.361C340.586 171.945 340.227 168.795 338.075 167.521C335.922 166.247 331.886 162.831 330.138 161.283C329.196 160.177 327.555 156.876 328.523 152.523C328.613 151.329 328.685 148.249 328.254 145.489C327.824 142.728 329.868 136.021 330.945 133.013C331.573 131.42 332.122 125.182 332.425 123.988C333.77 118.679 338.29 107.212 345.608 103.814C346.954 103.239 350.075 102.513 351.797 104.212C353.949 106.336 356.102 119.475 351.124 133.013C358.165 118.767 373.779 89.6391 379.914 87.0909C386.048 84.5426 394.936 78.6851 398.613 76.0749C401.708 73.332 407.735 66.2003 407.089 59.6173C406.443 53.0342 425.385 52.0079 435.071 53.3794C442.56 53.9545 459.071 54.7597 466.82 53.3794C474.569 51.9991 492.785 63.5105 499.242 68.9079L499.393 69.0355C502.698 71.8354 511.379 79.1897 514.982 88.2854C519.556 99.8323 526.283 105.938 518.615 143.1C515.846 156.518 513.323 167.79 510.906 177.305C511.466 175.263 512.705 172.297 514.175 173.361C515.789 174.529 514.399 177.917 513.502 179.466L507.583 196.72C506.868 198.268 505.086 201.365 503.685 201.365C501.93 206.1 500.154 210.072 498.3 213.443C492.587 223.831 486.339 232.339 475.296 242.244C463.8 252.554 450.258 261.071 443.727 267.992C443.52 268.231 443.307 268.463 443.087 268.69C441.556 270.416 440.494 272.041 440.049 273.566C439.107 275.778 437.143 281.503 436.82 286.706C436.497 291.908 434.174 301.792 433.053 306.083C431.125 313.914 423.932 329.681 410.587 330.106C397.241 330.531 385.743 328.69 381.663 327.717L381.236 327.626C371.023 325.449 347.047 320.338 340.998 312.277C333.33 302.057 332.828 302.234 324.218 278.742C317.33 259.949 319.913 252.906 321.124 248.747C322.335 244.588 325.752 236.271 328.12 236.271Z" fill="#A8836A"/>
<path d="M340.496 202.825C338.99 210.576 333.366 230.166 328.12 236.271C325.752 236.271 322.335 244.588 321.124 248.747C319.913 252.906 317.33 259.949 324.218 278.742C332.828 302.234 333.33 302.057 340.998 312.277C347.133 320.452 371.707 325.593 381.663 327.717C385.743 328.69 397.241 330.531 410.587 330.106C423.932 329.681 431.125 313.914 433.053 306.083C434.174 301.792 436.497 291.908 436.82 286.706C437.143 281.503 439.107 275.778 440.049 273.566C440.553 271.837 441.851 269.98 443.727 267.992M340.496 202.825C340.855 201.586 341.465 198.445 341.034 195.791C340.604 193.136 340.496 179.731 340.496 173.361C340.586 171.945 340.227 168.795 338.075 167.521C335.922 166.247 331.886 162.831 330.138 161.283C329.196 160.177 327.555 156.876 328.523 152.523C328.613 151.329 328.685 148.249 328.254 145.489C327.824 142.728 329.868 136.021 330.945 133.013C331.573 131.42 332.122 125.182 332.425 123.988C333.77 118.679 338.29 107.212 345.608 103.814C346.954 103.239 350.075 102.513 351.797 104.212C353.949 106.336 356.102 119.475 351.124 133.013C358.165 118.767 373.779 89.6391 379.914 87.0909C386.048 84.5426 394.936 78.6851 398.613 76.0749C401.708 73.332 407.735 66.2003 407.089 59.6173C406.443 53.0342 425.385 52.0079 435.071 53.3794C442.56 53.9545 459.071 54.7597 466.82 53.3794C474.569 51.9991 492.785 63.5105 499.242 68.9079C502.426 71.6066 511.323 79.0479 514.982 88.2854C519.556 99.8323 526.283 105.938 518.614 143.1C515.79 156.786 513.222 168.24 510.761 177.873M340.496 202.825C346.416 224.857 367.214 270.222 403.053 275.424C412.904 277.238 434.83 278.291 443.727 267.992M443.727 267.992C450.258 261.071 463.8 252.554 475.296 242.244C486.339 232.339 492.587 223.831 498.3 213.443C500.154 210.072 501.93 206.1 503.685 201.365M510.761 177.873C511.226 175.882 512.561 172.193 514.175 173.361C515.789 174.529 514.399 177.917 513.502 179.466L507.583 196.72C506.868 198.268 505.086 201.365 503.685 201.365M510.761 177.873C508.345 187.329 506.033 195.03 503.685 201.365" stroke="#37221D"/>
<path d="M475.834 144.162C474.865 142.144 476.237 140.401 477.044 139.782C480.058 138.508 486.731 140.578 488.614 142.436C489.367 145.834 487.583 147.303 486.596 147.612L475.834 144.162Z" fill="#4F3024" stroke="black"/>
<path d="M421.792 224.616C409.941 223.893 395.796 204.355 390.205 194.676V192.981C410.325 200.325 451.715 215.329 456.319 216.594C462.073 218.176 459.624 217.498 457.176 219.306C454.727 221.113 436.607 225.519 421.792 224.616Z" fill="black" stroke="black" stroke-width="0.5"/>
<path d="M390.817 193.433C398.653 202.471 428.771 216.142 460.114 217.95C450.564 203.149 398.849 191.354 390.817 193.433Z" fill="#FFF7E3" stroke="#FFF7E3" stroke-width="0.5"/>
<path fill-rule="evenodd" clip-rule="evenodd" d="M405.015 219.52C408.597 228.219 417.258 232.098 422.645 232.174C425.737 232.174 432.104 234.789 441.5 228.219C445.208 225.626 455.131 220.612 461.456 218.616C459.6 217.087 455.194 218.572 450.786 220.058C447.055 221.317 443.321 222.575 441.132 222.005C435.923 220.65 428.318 220.574 423.135 220.65C421.763 218.661 415.381 214.398 412.361 212.515C411.381 211.988 408.222 210.256 403.423 207.544C398.623 204.833 393.179 198.28 391.057 195.342C390.282 194.212 389.735 192.292 393.751 193.647C397.766 195.003 413.136 199.56 420.319 201.669C423.543 203.627 431.901 207.747 439.541 208.561C447.18 209.374 457.691 216.357 461.456 218.616L459.742 215.001C455.824 206.866 441.867 202.121 438.684 203.025C436.137 203.748 433.786 201.82 432.929 200.765C427.346 194.8 416.238 193.836 411.381 194.099C405.545 193.422 392.432 191.002 388.364 192.631C385.824 193.648 387.67 198.016 390.078 200.426C392.486 202.837 393.807 203.775 396.108 207.109C398.102 209.996 402.507 213.431 405.015 219.52Z" fill="#9F625B"/>
<path d="M461.456 218.616C455.131 220.612 445.208 225.626 441.5 228.219C432.104 234.789 425.737 232.174 422.645 232.174C417.258 232.098 408.597 228.219 405.015 219.52C402.507 213.431 398.102 209.996 396.108 207.109C393.807 203.775 392.486 202.837 390.078 200.426C387.67 198.016 385.824 193.648 388.364 192.631C392.432 191.002 405.545 193.422 411.381 194.099C416.238 193.836 427.346 194.8 432.929 200.765C433.786 201.82 436.137 203.748 438.684 203.025C441.867 202.121 455.824 206.866 459.742 215.001L461.456 218.616ZM461.456 218.616C457.691 216.357 447.18 209.374 439.541 208.561C431.901 207.747 423.543 203.627 420.319 201.669C413.136 199.56 397.766 195.003 393.751 193.647C389.735 192.292 390.282 194.212 391.057 195.342C393.179 198.28 398.623 204.833 403.423 207.544C408.222 210.256 411.381 211.988 412.361 212.515C415.381 214.398 421.763 218.661 423.135 220.65C428.318 220.574 435.923 220.65 441.132 222.005C443.321 222.575 447.055 221.317 450.786 220.058C455.194 218.572 459.6 217.087 461.456 218.616Z" stroke="#764739" stroke-width="0.5"/>
<path d="M417.582 99.0357C404.021 91.9218 391.438 95.231 386.64 99.0357C387.94 94.455 394.174 87.7542 403.86 86.6925C421.752 84.7314 429.959 93.4613 453.905 106.601L447.582 116.422C445.026 111.91 431.143 106.15 417.582 99.0357Z" fill="black"/>
<path d="M472.605 127.173L476.775 115.626C484.264 117.794 501.421 123.138 510.139 127.173C518.856 131.208 515.565 145.223 512.829 151.727C512.829 133.809 489.017 132.084 472.605 127.173Z" fill="black"/>
<path d="M417.582 99.0357C404.021 91.9218 391.438 95.231 386.64 99.0357C387.94 94.455 394.174 87.7542 403.86 86.6925C421.752 84.7314 429.959 93.4613 453.905 106.601L447.582 116.422C445.026 111.91 431.143 106.15 417.582 99.0357Z" stroke="black" stroke-width="0.5"/>
<path d="M472.605 127.173L476.775 115.626C484.264 117.794 501.421 123.138 510.139 127.173C518.856 131.208 515.565 145.223 512.829 151.727C512.829 133.809 489.017 132.084 472.605 127.173Z" stroke="black" stroke-width="0.5"/>
<path d="M424.712 154.249C418.389 154.249 412.335 168.503 424.712 171.901C426.054 172.333 427.78 172.854 429.555 173.332M463.861 168.45C466.865 174.068 469.645 185.518 456.73 186.367M456.73 186.367C455.609 186.412 452.103 185.093 450.811 182.651C449.969 181.059 450.138 180.15 450.811 179.731C452.515 178.669 457.134 177.183 458.21 180.793C459.287 184.403 457.672 186.013 456.73 186.367ZM429.555 173.332C433.949 174.515 436.82 175.219 436.82 173.891C436.82 171.631 436.282 170.972 435.609 170.175C434.868 169.298 433.322 168.583 431.708 168.45C430.093 168.317 428.075 168.45 427.941 170.308C427.806 172.166 427.941 172.506 429.555 173.332Z" stroke="#4F3024"/>
<path d="M402.649 107.397C410.407 106.336 427.484 107.265 433.726 119.475M502.202 149.47C499.332 143.631 489.556 132.986 473.412 137.127M397.806 110.715C406.999 108.503 426.38 109.548 434.667 127.704C427.537 121.731 411.367 116.077 396.73 112.574C395.16 112.192 395.331 111.18 397.806 110.715ZM500.184 154.116C495.879 146.683 483.717 133.915 469.511 142.303C477.179 144.206 492.507 149.56 495.744 151.063C498.031 152.125 499.78 154.116 500.184 154.116Z" stroke="black"/>
<path d="M408.569 115.892C407.385 112.919 409.376 111.114 410.721 110.45C414.084 110.052 422.829 113.635 424.174 115.228C425.519 116.821 422.062 120.787 420.676 120.139C418.12 118.944 412.739 117.086 408.569 115.892Z" fill="#4F3024" stroke="black"/>
<path d="M420.983 115.361C420.983 115.665 420.732 115.923 420.407 115.923C420.083 115.923 419.831 115.665 419.831 115.361C419.831 115.057 420.083 114.799 420.407 114.799C420.732 114.799 420.983 115.057 420.983 115.361Z" fill="white" stroke="black"/>
<path d="M485.558 142.967C485.558 143.271 485.306 143.529 484.982 143.529C484.657 143.529 484.405 143.271 484.405 142.967C484.405 142.663 484.657 142.405 484.982 142.405C485.306 142.405 485.558 142.663 485.558 142.967Z" fill="white" stroke="black"/>
</svg>
