<svg width="40" height="40" viewBox="0 0 40 40" fill="none" xmlns="http://www.w3.org/2000/svg">
<path d="M31.9499 21.6098V29.8554H27.1694V22.1624C27.1694 20.2308 26.4792 18.9117 24.7483 18.9117C23.4274 18.9117 22.6427 19.7998 22.2961 20.6597C22.1703 20.967 22.1378 21.3938 22.1378 21.8248V29.855H17.3569C17.3569 29.855 17.4211 16.8257 17.3569 15.477H22.1382V17.5145C22.1286 17.5305 22.115 17.5462 22.1064 17.5615H22.1382V17.5145C22.7735 16.5369 23.9065 15.1394 26.4467 15.1394C29.5919 15.1394 31.9499 17.1943 31.9499 21.6098ZM12.3557 8.54625C10.7203 8.54625 9.65039 9.61973 9.65039 11.0301C9.65039 12.4106 10.6893 13.5151 12.2929 13.5151H12.3239C13.9914 13.5151 15.0281 12.4106 15.0281 11.0301C14.9964 9.61973 13.9914 8.54625 12.3557 8.54625ZM9.93454 29.8554H14.7137V15.477H9.93454V29.8554Z" fill="white"/>
</svg>
