<svg width="40" height="40" viewBox="0 0 40 40" fill="none" xmlns="http://www.w3.org/2000/svg">
<path d="M32.2499 14.3734C31.3928 14.7534 30.4709 15.0105 29.504 15.1253C30.4912 14.5338 31.2488 13.598 31.6064 12.481C30.6826 13.029 29.6591 13.4265 28.5706 13.6408C27.6986 12.712 26.4561 12.1316 25.0804 12.1316C22.4407 12.1316 20.2998 14.2725 20.2998 16.9121C20.2998 17.2868 20.3423 17.6516 20.4243 18.0017C16.4512 17.8024 12.9285 15.8993 10.5705 13.0062C10.1591 13.7121 9.92309 14.5338 9.92309 15.4098C9.92309 17.0679 10.7677 18.5318 12.0497 19.3889C11.2664 19.3643 10.5288 19.1493 9.88458 18.7903C9.88423 18.8106 9.88423 18.8309 9.88423 18.8509C9.88423 21.1672 11.5328 23.0991 13.7193 23.538C13.3185 23.6478 12.8954 23.7059 12.4601 23.7059C12.1513 23.7059 11.8522 23.6763 11.5606 23.6207C12.1688 25.5195 13.9339 26.9017 16.0263 26.9406C14.3899 28.223 12.3289 28.987 10.0885 28.987C9.70347 28.987 9.322 28.9645 8.94873 28.9199C11.0632 30.2768 13.5767 31.068 16.2762 31.068C25.0693 31.068 29.878 23.7836 29.878 17.4658C29.878 17.2587 29.8734 17.0523 29.8641 16.8476C30.7989 16.1738 31.6092 15.3321 32.2499 14.3734Z" fill="white"/>
</svg>
